<svg xmlns="http://www.w3.org/2000/svg" width="800" height="472" viewBox="0 0 800 472" fill="none">
  <style>
    .ach-header  { font-family: -apple-system, BlinkMacSystemFont, 'Segoe UI', Roboto, sans-serif; font-weight: 800; font-size: 18px; fill: #a78bfa; letter-spacing: 0.5px; }
    .ach-sub-hdr { font-family: -apple-system, BlinkMacSystemFont, 'Segoe UI', Roboto, sans-serif; font-size: 10px; fill: #64748b; font-weight: 500; }
    .ach-title   { font-family: -apple-system, BlinkMacSystemFont, 'Segoe UI', Roboto, sans-serif; font-weight: 700; font-size: 13px; fill: #f1f5f9; }
    .ach-sub     { font-family: -apple-system, BlinkMacSystemFont, 'Segoe UI', Roboto, sans-serif; font-size: 10.5px; fill: #94a3b8; }
  </style>

  <!-- Outer frame -->
  <rect x="1" y="1" width="798" height="470" rx="10" fill="#0d0b21" stroke="#1e1b4b" stroke-width="1.5"/>

  <!-- Header -->
  <g transform="translate(25, 22)">
    <text x="0" y="14" class="ach-header">SYSTEM MILESTONES &amp; ACHIEVEMENTS</text>
    <text x="0" y="30" class="ach-sub-hdr">Decorated checkpoints logged across competitive, open-source, and engineering domains</text>
  </g>

  <!-- Online badge -->
  <g transform="translate(620, 18)">
    <rect width="158" height="22" rx="4" fill="#110e2e" stroke="#1e1b4b" stroke-width="1"/>
    <circle cx="14" cy="11" r="3.5" fill="#10b981"/>
    <text x="25" y="14.5" font-family="monospace" font-size="9" font-weight="bold" fill="#34d399">MILESTONE_LOG: ACTIVE</text>
  </g>

  <!-- Separator -->
  <line x1="25" y1="62" x2="775" y2="62" stroke="#1e1b4b" stroke-width="1" stroke-dasharray="6 3"/>

  <!-- Achievement rows -->
  <rect x="1" y="80" width="798" height="54" rx="6" fill="#110e2e" stroke="#1e1b4b" stroke-width="1"/>
  <rect x="1" y="80" width="4" height="54" rx="2" fill="#f59e0b"/>
  <circle cx="34" cy="107" r="18" fill="#0d0b21" stroke="#f59e0b" stroke-width="1.2" stroke-opacity="0.7"/>
  <g transform="translate(24,97)" fill="none" stroke="#f59e0b" stroke-width="1.8" stroke-linecap="round" stroke-linejoin="round"><path d="M5 7H3.5a2 2 0 0 1 0-4H5"/><path d="M15 7h1.5a2 2 0 0 0 0-4H15"/><path d="M3 18h14"/><path d="M8 12.5V14.5c0 .4-.3.7-.7.9C6.3 15.8 5.5 17 5.5 18"/><path d="M12 12.5V14.5c0 .4.3.7.7.9c1 .4 1.8 1.6 1.8 2.6"/><path d="M15 2H5v5a5 5 0 0 0 10 0V2Z"/></g>
  <text x="62" y="102" class="ach-title">Winner – OpenMRS Global AI Hackathon</text>
  <text x="62" y="120" class="ach-sub">VitaSort: automatic vital-sign-based queue prioritisation for OpenMRS</text>
  <circle cx="788" cy="107" r="3" fill="#f59e0b" opacity="0.7"/>
  <rect x="1" y="142" width="798" height="54" rx="6" fill="#110e2e" stroke="#1e1b4b" stroke-width="1"/>
  <rect x="1" y="142" width="4" height="54" rx="2" fill="#4285f4"/>
  <circle cx="34" cy="169" r="18" fill="#0d0b21" stroke="#4285f4" stroke-width="1.2" stroke-opacity="0.7"/>
  <g transform="translate(24,159)" fill="none" stroke="#4285f4" stroke-width="1.8" stroke-linecap="round" stroke-linejoin="round"><circle cx="10" cy="10" r="8"/><path d="M10 2a12.5 12.5 0 0 0 0 16M10 2a12.5 12.5 0 0 1 0 16"/><path d="M2 10h16"/></g>
  <text x="62" y="164" class="ach-title">Google Summer of Code 2025 – Contributor</text>
  <text x="62" y="182" class="ach-sub">Selected contributor for OpenMRS | openmrs-esm-patient-management</text>
  <circle cx="788" cy="169" r="3" fill="#4285f4" opacity="0.7"/>
  <rect x="1" y="204" width="798" height="54" rx="6" fill="#110e2e" stroke="#1e1b4b" stroke-width="1"/>
  <rect x="1" y="204" width="4" height="54" rx="2" fill="#10b981"/>
  <circle cx="34" cy="231" r="18" fill="#0d0b21" stroke="#10b981" stroke-width="1.2" stroke-opacity="0.7"/>
  <g transform="translate(24,221)" fill="none" stroke="#10b981" stroke-width="1.8" stroke-linecap="round" stroke-linejoin="round"><line x1="5" y1="3" x2="5" y2="17"/><circle cx="5" cy="3" r="1.8"/><circle cx="5" cy="17" r="1.8"/><circle cx="15" cy="7" r="1.8"/><path d="M5 8c4 0 10 2 10 3"/></g>
  <text x="62" y="226" class="ach-title">Open Source Impact</text>
  <text x="62" y="244" class="ach-sub">27+ Pull Requests merged across 12 repositories &amp; 7 organisations</text>
  <circle cx="788" cy="231" r="3" fill="#10b981" opacity="0.7"/>
  <rect x="1" y="266" width="798" height="54" rx="6" fill="#110e2e" stroke="#1e1b4b" stroke-width="1"/>
  <rect x="1" y="266" width="4" height="54" rx="2" fill="#8b5cf6"/>
  <circle cx="34" cy="293" r="18" fill="#0d0b21" stroke="#8b5cf6" stroke-width="1.2" stroke-opacity="0.7"/>
  <g transform="translate(24,283)" fill="none" stroke="#8b5cf6" stroke-width="1.8" stroke-linecap="round" stroke-linejoin="round"><path d="M4 14.5c-1 1-1.5 3.5-1.5 3.5s2.5-.5 3.5-1.5l2-2L6 12.5l-2 2Z"/><path d="M10 12l-2-2a18 18 0 0 1 1.6-3.2A10.5 10.5 0 0 1 18 1.5c0 2.2-.6 6.1-4.8 9A18 18 0 0 1 10 12Z"/><path d="M7.5 9.5H3.5s.4-2.5 1.6-3.2c1.3-.9 4 0 4 0"/><path d="M10 12v4s2.5.4 3.2-1.6c.9-1.3 0-4 0-4"/></g>
  <text x="62" y="288" class="ach-title">Founder &amp; Principal Architect – DevDirect</text>
  <text x="62" y="306" class="ach-sub">Custom software agency helping businesses scale with modern solutions</text>
  <circle cx="788" cy="293" r="3" fill="#8b5cf6" opacity="0.7"/>
  <rect x="1" y="328" width="798" height="54" rx="6" fill="#110e2e" stroke="#1e1b4b" stroke-width="1"/>
  <rect x="1" y="328" width="4" height="54" rx="2" fill="#d946ef"/>
  <circle cx="34" cy="355" r="18" fill="#0d0b21" stroke="#d946ef" stroke-width="1.2" stroke-opacity="0.7"/>
  <g transform="translate(24,345)" fill="none" stroke="#d946ef" stroke-width="1.8" stroke-linecap="round" stroke-linejoin="round"><polyline points="14 1 18 5 14 9"/><path d="M2 9.5V8a3.5 3.5 0 0 1 3.5-3.5H18"/><polyline points="6 19 2 15 6 11"/><path d="M18 10.5V12a3.5 3.5 0 0 1-3.5 3.5H2"/></g>
  <text x="62" y="350" class="ach-title">Creator – GRWM (Get Ready With Me)</text>
  <text x="62" y="368" class="ach-sub">AI-powered context handoff tool – carry your dev context across sessions</text>
  <circle cx="788" cy="355" r="3" fill="#d946ef" opacity="0.7"/>
  <rect x="1" y="390" width="798" height="54" rx="6" fill="#110e2e" stroke="#1e1b4b" stroke-width="1"/>
  <rect x="1" y="390" width="4" height="54" rx="2" fill="#38bdf8"/>
  <circle cx="34" cy="417" r="18" fill="#0d0b21" stroke="#38bdf8" stroke-width="1.2" stroke-opacity="0.7"/>
  <g transform="translate(24,407)" fill="none" stroke="#38bdf8" stroke-width="1.8" stroke-linecap="round" stroke-linejoin="round"><polyline points="13 14 17 10 13 6"/><polyline points="7 6 3 10 7 14"/><line x1="11" y1="4" x2="9" y2="16"/></g>
  <text x="62" y="412" class="ach-title">Full-Stack &amp; AI Systems Engineer</text>
  <text x="62" y="430" class="ach-sub">MERN · FastAPI · LangChain · PyTorch · RAG · LLM Fine-Tuning</text>
  <circle cx="788" cy="417" r="3" fill="#38bdf8" opacity="0.7"/>
</svg>