<svg xmlns="http://www.w3.org/2000/svg" width="480" height="140" viewBox="0 0 480 140" fill="none">
  <style>
    .song-title { font-family: -apple-system, BlinkMacSystemFont, 'Inter', 'Segoe UI', Roboto, sans-serif; font-weight: 700; font-size: 14px; fill: #ffffff; }
    .artist { font-family: -apple-system, BlinkMacSystemFont, 'Inter', 'Segoe UI', Roboto, sans-serif; font-weight: 500; font-size: 11.5px; fill: #a78bfa; }
    .badge-txt { font-family: 'SFMono-Regular', Consolas, monospace; font-size: 8.5px; font-weight: bold; fill: #a78bfa; letter-spacing: 0.8px; }
    .spinning-art { transform-origin: 70px 70px; animation: spin 12s linear infinite; }
    @keyframes spin { 0% { transform: rotate(0deg); } 100% { transform: rotate(360deg); } }
  </style>

  <!-- Player Frame -->
  <rect x="1" y="1" width="478" height="138" rx="12" fill="#0d0b21" stroke="#1e1b4b" stroke-width="1.5"/>

  <!-- Album Art Cover -->
  
    <g class="">
      <circle cx="70" cy="70" r="48" fill="#110e2e" stroke="#1e1b4b" stroke-width="1" />
      <circle cx="70" cy="70" r="38" fill="#08051a" stroke="#221c54" stroke-width="0.5" />
      <circle cx="70" cy="70" r="28" fill="none" stroke="#221c54" stroke-width="0.5" stroke-dasharray="4 2" />
      <circle cx="70" cy="70" r="16" fill="#a78bfa" />
      <circle cx="70" cy="70" r="4" fill="#0d0b21" />
    </g>
    <circle cx="70" cy="70" r="48" fill="none" stroke="#1e1b4b" stroke-width="1.5" pointer-events="none"/>

  <!-- Track Details -->
  <g transform="translate(136, 28)">
    <!-- Dynamic Playing Badge -->
    <rect x="0" y="0" width="125" height="18" rx="4" fill="rgba(167, 139, 250, 0.12)" stroke="#a78bfa" stroke-opacity="0.2" stroke-width="1" />
    <circle cx="10" cy="9" r="3.5" fill="#a78bfa">
      <animate attributeName="opacity" values="0.4;1;0.4" dur="2s" repeatCount="indefinite" />
    </circle>
    <text x="20" y="12.5" class="badge-txt">DEV FOCUS MODE</text>

    <!-- Song Title -->
    <text x="0" y="38" class="song-title">Caffeine &amp; Neural Networks</text>
    
    <!-- Artist Info -->
    <text x="0" y="55" class="artist">Sankalpa Sarkar — Dev Focus Vibe</text>
  </g>

  <!-- Interactive Control Icons -->
  <g transform="translate(136, 96)" stroke="#64748b" stroke-width="1.8" stroke-linecap="round" stroke-linejoin="round" fill="none">
    <!-- Skip Back -->
    <path d="M 0 6 L 0 16 M 8 6 L 2 11 L 8 16" />
    <!-- Play/Pause Button -->
    <circle cx="22" cy="11" r="9" fill="#a78bfa" fill-opacity="0.05" stroke="#a78bfa" />
    <path d="M 20 8 V 14 M 24 8 V 14" stroke="#a78bfa" stroke-width="1.8" />
    <!-- Skip Forward -->
    <path d="M 36 6 L 42 11 L 36 16" />
    <path d="M 44 6 L 44 16" />
  </g>

  <!-- Equalizer Visualizer (Jumping bars) -->
  <g transform="translate(425, 88)">
    <rect x="0" y="0" width="3" height="24" fill="#64748b" rx="1.2">
      
    </rect>
    <rect x="5" y="0" width="3" height="24" fill="#64748b" rx="1.2">
      
    </rect>
    <rect x="10" y="0" width="3" height="24" fill="#64748b" rx="1.2">
      
    </rect>
    <rect x="15" y="0" width="3" height="24" fill="#64748b" rx="1.2">
      
    </rect>
    <rect x="20" y="0" width="3" height="24" fill="#64748b" rx="1.2">
      
    </rect>
  </g>

  <!-- YT Music Brand Accent Icon -->
  <g transform="translate(440, 16)">
    <circle cx="12" cy="12" r="11" fill="#ff0000" />
    <circle cx="12" cy="12" r="7" fill="#0d0b21" stroke="#ff0000" stroke-width="1.2" />
    <path d="M 10 9 L 15.5 12 L 10 15 Z" fill="#ffffff" />
  </g>
</svg>