<svg width="480" height="140" viewBox="0 0 480 140" fill="none" xmlns="http://www.w3.org/2000/svg">
  <style>
    .song-title { font: 700 15px 'Inter', system-ui, sans-serif; fill: #ffffff; }
    .artist { font: 500 12px 'Inter', system-ui, sans-serif; fill: #a78bfa; }
    .time { font: 500 10px monospace; fill: #94a3b8; }
    .badge { font: 600 9px monospace; fill: #ff0000; letter-spacing: 1px; }
    .vinyl-record { transform-origin: 60px 70px; animation: spin 8s linear infinite; }
    @keyframes spin { 0% { transform: rotate(0deg); } 100% { transform: rotate(360deg); } }
  </style>

  <defs>
    <linearGradient id="bgGrad" x1="0" y1="0" x2="480" y2="140" gradientUnits="userSpaceOnUse">
      <stop offset="0%" stop-color="#0a0817" />
      <stop offset="100%" stop-color="#120e2e" />
    </linearGradient>
    <linearGradient id="borderGrad" x1="0" y1="0" x2="480" y2="140" gradientUnits="userSpaceOnUse">
      <stop offset="0%" stop-color="#ff0000" stop-opacity="0.8" />
      <stop offset="100%" stop-color="#8b5cf6" stop-opacity="0.4" />
    </linearGradient>
    <filter id="glow" x="-20%" y="-20%" width="140%" height="140%">
      <feGaussianBlur stdDeviation="6" result="blur" />
      <feComposite in="SourceGraphic" in2="blur" operator="over" />
    </filter>
  </defs>

  <!-- Glowing background drop shadow -->
  <rect x="8" y="8" width="464" height="124" rx="16" fill="#ff0000" opacity="0.1" filter="url(#glow)" />

  <!-- Main Player Container -->
  <rect x="8" y="8" width="464" height="124" rx="16" fill="url(#bgGrad)" stroke="url(#borderGrad)" stroke-width="1.5" />

  
    <!-- Album Art: Glowing Spinning Vinyl Record -->
    <g class="vinyl-record">
      <circle cx="60" cy="70" r="42" fill="#18142c" stroke="#ff0000" stroke-width="1.5" />
      <circle cx="60" cy="70" r="32" fill="#0d0a1b" stroke="#3b0764" stroke-width="1" />
      <circle cx="60" cy="70" r="24" fill="none" stroke="#2e2b42" stroke-width="0.5" stroke-dasharray="10 5" />
      <circle cx="60" cy="70" r="16" fill="none" stroke="#2e2b42" stroke-width="0.5" stroke-dasharray="4 2" />
      <circle cx="60" cy="70" r="12" fill="#ff0000" />
      <circle cx="60" cy="70" r="3" fill="#0d0a1b" />
    </g>

  <!-- Track Information -->
  <g transform="translate(120, 28)">
    <!-- Dynamic Playing Badge -->
    <rect x="0" y="0" width="125" height="18" rx="9" fill="rgba(255, 0, 0, 0.12)" />
    <circle cx="11" cy="9" r="3.5" fill="#ff0000">
      <animate attributeName="opacity" values="0.4;1;0.4" dur="2s" repeatCount="indefinite" />
    </circle>
    <text x="22" y="10" dominant-baseline="middle" class="badge">YOUTUBE MUSIC</text>

    <!-- Song & Artist Details -->
    <text x="0" y="36" class="song-title">Prem Ki Leela</text>
    <text x="0" y="54" class="artist">Shreya Ghoshal, Javed Ali, Suvarna Tiwari, Prasad S, &amp; Swaradish Dr Bharat Balvalli</text>
  </g>

  <!-- Player Controls (Bottom Progress Section) -->
  <g transform="translate(120, 95)">
    <!-- Progress Bar Background -->
    <rect x="0" y="6" width="260" height="4" rx="2" fill="#334155" />
    <!-- Active Progress Bar -->
    <rect x="0" y="6" width="0" height="4" rx="2" fill="#ff0000">
      <animate attributeName="width" from="0" to="260" dur="240s" repeatCount="indefinite"/>
    </rect>
    <!-- Active slider node -->
    <circle cx="0" cy="8" r="5" fill="#ffffff">
      <animate attributeName="cx" from="0" to="260" dur="240s" repeatCount="indefinite"/>
    </circle>
    
    <!-- Track Timers -->
    <text x="0" y="24" class="time">00:00</text>
    <text x="260" y="24" text-anchor="end" class="time">04:20</text>
  </g>

  <!-- Interactive Control Icons -->
  <g transform="translate(395, 78)" stroke="#94a3b8" stroke-width="1.8" stroke-linecap="round" stroke-linejoin="round" fill="none">
    <!-- Skip Back -->
    <path d="M 4 6 L 4 18 M 12 6 L 6 12 L 12 18" stroke="#94a3b8" />
    <!-- Play/Pause Button -->
    <circle cx="28" cy="12" r="10" fill="#ff0000" fill-opacity="0.1" stroke="#ff0000" />
    <path d="M 25 8 V 16 M 31 8 V 16" stroke="#ff0000" stroke-width="2" />
    <!-- Skip Forward -->
    <path d="M 44 6 L 50 12 L 44 18" />
    <path d="M 52 6 L 52 18" />
  </g>

  <!-- Brand Accent Icon -->
  
    <g transform="translate(415, 20)">
      <circle cx="15" cy="15" r="14" fill="#ff0000" />
      <circle cx="15" cy="15" r="9" fill="#0a0817" stroke="#ff0000" stroke-width="1" />
      <path d="M 13 11 L 19 15 L 13 19 Z" fill="#ffffff" />
    </g>
</svg>